<svg width="219" height="219" viewBox="0 0 219 219" fill="none" xmlns="http://www.w3.org/2000/svg">
<path d="M119.017 17.1955L119.02 17.19V6.59399C119.02 2.14635 114.015 -0.461951 110.37 2.08571L4.98547 75.7302C2.17457 77.6945 0.5 80.9077 0.5 84.3369V215.965C0.5 217.346 1.61929 218.465 3 218.465H8.78349C11.3711 218.465 14.2107 217.351 16.4021 215.618C18.5893 213.889 20.2159 211.473 20.2159 208.821V94.4851C20.2159 90.7405 22.0391 87.2303 25.1027 85.0769L94.5019 36.2955C96.821 34.6654 100.015 36.3242 100.015 39.1589V50.6965V69.4351H80.4196H60.3246L59.8246 69.9351V88.2522L60.3246 88.7522H100.015V120.611V152.97V185.329V217.689L100.506 218.188L118.509 218.482L119.017 217.983V89.0428L163.181 88.7521L163.678 88.2522V69.9351L163.178 69.4351L142.409 69.4351L142.403 69.4351L119.017 69.7229V17.1955ZM218 218.5L218.5 217.997L218.038 151.875C218.01 147.869 215.899 144.166 212.467 142.101L148.324 103.51C147.325 102.908 146.051 103.628 146.051 104.795L146.051 114.587C146.051 121.635 149.855 128.135 155.999 131.587L191.961 151.792C196.215 154.182 198.848 158.682 198.848 163.562V202.997C198.848 211.551 205.779 218.489 214.334 218.497L218 218.5Z" fill="#FFEEDF" stroke="#FFEEDF" stroke-linecap="round" stroke-linejoin="bevel"/>
</svg>
