<svg width="208" height="20" viewBox="0 0 208 20" fill="none" xmlns="http://www.w3.org/2000/svg">
<path d="M2.90844 2.83C2.54844 2.83 2.26044 2.722 2.04444 2.506C1.82844 2.29 1.72044 1.996 1.72044 1.624C1.72044 0.844 2.11644 0.454 2.90844 0.454C3.26844 0.454 3.55044 0.562 3.75444 0.778C3.97044 0.981999 4.07844 1.264 4.07844 1.624C4.07844 2.428 3.68844 2.83 2.90844 2.83ZM5.66244 2.83C5.30244 2.83 5.01444 2.722 4.79844 2.506C4.58244 2.278 4.47444 1.984 4.47444 1.624C4.47444 1.276 4.58244 0.994 4.79844 0.778C5.01444 0.562 5.30244 0.454 5.66244 0.454C6.02244 0.454 6.30444 0.562 6.50844 0.778C6.72444 0.981999 6.83244 1.264 6.83244 1.624C6.83244 2.428 6.44244 2.83 5.66244 2.83ZM4.29444 13C3.15444 13 2.26044 12.616 1.61244 11.848C1.06044 11.188 0.784438 10.342 0.784438 9.31C0.784438 8.23 1.09644 7.288 1.72044 6.484C2.34444 5.68 3.23244 5.086 4.38444 4.702C5.60844 5.11 6.53244 5.752 7.15644 6.628C7.72044 7.396 8.00244 8.29 8.00244 9.31C8.00244 10.498 7.64244 11.428 6.92244 12.1C6.29844 12.7 5.48244 13 4.47444 13H4.29444ZM4.27644 10.822H4.51044C5.35044 10.822 5.77044 10.324 5.77044 9.328C5.77044 8.188 5.30844 7.354 4.38444 6.826C3.47244 7.354 3.01644 8.176 3.01644 9.292C3.01644 10.312 3.43644 10.822 4.27644 10.822ZM14.0687 13C12.9767 13 12.1307 12.652 11.5307 11.956C11.0147 11.356 10.7567 10.582 10.7567 9.634V2.578L13.0247 1.39V9.526C13.0247 9.994 13.1207 10.33 13.3127 10.534C13.5047 10.726 13.8287 10.822 14.2847 10.822H15.9047V13H14.0687ZM14.8194 13V10.822H17.9874V13H14.8194ZM16.9112 13V10.822H20.0792V13H16.9112ZM19.003 13V10.822H22.171V13H19.003ZM27.5028 10.822H29.1228V13H27.2868C26.4108 13 25.6848 12.766 25.1088 12.298C24.5328 12.766 23.8068 13 22.9308 13H21.0948V10.822H22.7148C23.1708 10.822 23.4948 10.726 23.6868 10.534C23.8788 10.33 23.9748 9.994 23.9748 9.526V6.196L26.2428 5.008V9.526C26.2428 9.994 26.3388 10.33 26.5308 10.534C26.7228 10.726 27.0468 10.822 27.5028 10.822ZM22.8408 14.638C23.2008 14.638 23.4828 14.74 23.6868 14.944C23.9028 15.16 24.0108 15.448 24.0108 15.808C24.0108 16.612 23.6208 17.014 22.8408 17.014C22.4808 17.014 22.1928 16.906 21.9768 16.69C21.7608 16.474 21.6528 16.18 21.6528 15.808C21.6528 15.028 22.0488 14.638 22.8408 14.638ZM25.6128 14.638C25.9728 14.638 26.2548 14.74 26.4588 14.944C26.6748 15.16 26.7828 15.448 26.7828 15.808C26.7828 16.612 26.3928 17.014 25.6128 17.014C25.2528 17.014 24.9648 16.906 24.7488 16.69C24.5328 16.474 24.4248 16.18 24.4248 15.808C24.4248 15.028 24.8208 14.638 25.6128 14.638ZM28.0381 13V10.822H31.2061V13H28.0381ZM30.1299 13V10.822H33.2979V13H30.1299ZM32.2217 13V10.822H35.3897V13H32.2217ZM34.3135 13V10.822H37.4815V13H34.3135ZM36.4053 13V10.822H39.5733V13H36.4053ZM38.4971 13V10.822H41.6651V13H38.4971ZM40.5889 13V10.822H43.7569V13H40.5889ZM42.6807 13V10.822H45.3627C47.4747 10.822 49.1547 10.192 50.4027 8.932C49.5867 7.504 48.5967 6.79 47.4327 6.79C46.4727 6.79 45.4227 7.312 44.2827 8.356V6.358C45.2907 5.254 46.4307 4.702 47.7027 4.702C48.6387 4.702 49.5507 5.044 50.4387 5.728C51.3267 6.412 52.1127 7.384 52.7967 8.644V9.544C51.9327 10.648 50.8527 11.5 49.5567 12.1C48.2727 12.7 46.8687 13 45.3447 13H42.6807ZM62.3235 11.758C62.3235 11.77 62.3235 11.782 62.3235 11.794C62.3235 12.178 62.2035 12.49 61.9635 12.73C61.7235 12.97 61.4055 13.09 61.0095 13.09C60.6015 13.09 60.2715 12.97 60.0195 12.73C59.7795 12.478 59.6595 12.148 59.6595 11.74V11.704C59.6835 11.332 59.8155 11.032 60.0555 10.804C60.3075 10.576 60.6255 10.462 61.0095 10.462C61.4055 10.462 61.7235 10.582 61.9635 10.822C62.2035 11.062 62.3235 11.374 62.3235 11.758ZM68.2297 11.758C68.2297 11.77 68.2297 11.782 68.2297 11.794C68.2297 12.178 68.1097 12.49 67.8697 12.73C67.6297 12.97 67.3117 13.09 66.9157 13.09C66.5077 13.09 66.1777 12.97 65.9257 12.73C65.6857 12.478 65.5657 12.148 65.5657 11.74V11.704C65.5897 11.332 65.7217 11.032 65.9617 10.804C66.2137 10.576 66.5317 10.462 66.9157 10.462C67.3117 10.462 67.6297 10.582 67.8697 10.822C68.1097 11.062 68.2297 11.374 68.2297 11.758ZM83.6622 18.742C82.6182 19.414 81.4362 19.75 80.1162 19.75C78.6762 19.75 77.5242 19.294 76.6602 18.382C75.8322 17.506 75.4182 16.354 75.4182 14.926C75.4182 13.426 75.8562 12.25 76.7322 11.398C77.1162 11.026 77.5302 10.744 77.9742 10.552C78.4302 10.36 79.2342 10.126 80.3862 9.85C81.4302 9.598 82.1682 9.304 82.6002 8.968C81.7722 7.516 80.7762 6.79 79.6122 6.79C78.6282 6.79 77.5782 7.312 76.4622 8.356V6.358C77.4582 5.254 78.5922 4.702 79.8642 4.702C80.8122 4.702 81.7302 5.044 82.6182 5.728C83.5062 6.412 84.2922 7.384 84.9762 8.644V9.544C84.6162 10.168 84.1542 10.642 83.5902 10.966C83.0382 11.29 82.1562 11.596 80.9442 11.884C79.6602 12.184 78.8022 12.526 78.3702 12.91C77.8542 13.39 77.5962 14.068 77.5962 14.944C77.5962 16.696 78.5142 17.572 80.3502 17.572C81.5262 17.572 82.6302 17.248 83.6622 16.6V18.742ZM91.5708 12.478C91.1988 12.55 90.8148 12.586 90.4188 12.586C89.3148 12.586 88.4328 12.172 87.7728 11.344C87.2328 10.648 86.9628 9.808 86.9628 8.824C86.9628 7.504 87.3228 6.466 88.0428 5.71C88.6788 5.038 89.5188 4.702 90.5628 4.702C91.6308 4.702 92.4648 5.044 93.0648 5.728C93.5808 6.316 93.8388 7.084 93.8388 8.032V11.884C93.8388 13.3 93.4668 14.416 92.7228 15.232C92.0268 16 91.0788 16.384 89.8788 16.384C89.1228 16.384 88.3848 16.18 87.6648 15.772V13.81C88.3128 14.182 88.9608 14.368 89.6088 14.368C90.7728 14.368 91.4268 13.738 91.5708 12.478ZM91.5888 7.996C91.5888 7.204 91.2468 6.808 90.5628 6.808C90.1308 6.808 89.7888 6.982 89.5368 7.33C89.2968 7.678 89.1768 8.152 89.1768 8.752C89.1768 10.024 89.6328 10.66 90.5448 10.66C91.0248 10.66 91.3728 10.54 91.5888 10.3V7.996ZM101.325 11.884C101.325 13.276 100.941 14.404 100.173 15.268C99.4648 16.072 98.5288 16.474 97.3648 16.474C96.6088 16.474 95.8708 16.282 95.1508 15.898V13.918C95.7748 14.266 96.3868 14.44 96.9868 14.44C97.6468 14.44 98.1568 14.224 98.5168 13.792C98.8888 13.372 99.0748 12.784 99.0748 12.028V6.214L101.325 5.008V11.884ZM111.577 11.758C111.577 11.77 111.577 11.782 111.577 11.794C111.577 12.178 111.457 12.49 111.217 12.73C110.977 12.97 110.659 13.09 110.263 13.09C109.855 13.09 109.525 12.97 109.273 12.73C109.033 12.478 108.913 12.148 108.913 11.74V11.704C108.937 11.332 109.069 11.032 109.309 10.804C109.561 10.576 109.879 10.462 110.263 10.462C110.659 10.462 110.977 10.582 111.217 10.822C111.457 11.062 111.577 11.374 111.577 11.758ZM117.484 11.758C117.484 11.77 117.484 11.782 117.484 11.794C117.484 12.178 117.364 12.49 117.124 12.73C116.884 12.97 116.566 13.09 116.17 13.09C115.762 13.09 115.432 12.97 115.18 12.73C114.94 12.478 114.82 12.148 114.82 11.74V11.704C114.844 11.332 114.976 11.032 115.216 10.804C115.468 10.576 115.786 10.462 116.17 10.462C116.566 10.462 116.884 10.582 117.124 10.822C117.364 11.062 117.484 11.374 117.484 11.758ZM128.344 13C127.252 13 126.406 12.652 125.806 11.956C125.29 11.356 125.032 10.582 125.032 9.634V2.578L127.3 1.39V9.526C127.3 9.994 127.396 10.33 127.588 10.534C127.78 10.726 128.104 10.822 128.56 10.822H130.18V13H128.344ZM129.095 13V10.822H132.263V13H129.095ZM131.187 13V10.822H134.355V13H131.187ZM133.278 13V10.822H136.446V13H133.278ZM138.898 3.19C138.538 3.19 138.25 3.082 138.034 2.866C137.818 2.65 137.71 2.356 137.71 1.984C137.71 1.636 137.818 1.354 138.034 1.138C138.25 0.921999 138.538 0.813999 138.898 0.813999C139.258 0.813999 139.54 0.921999 139.744 1.138C139.96 1.342 140.068 1.624 140.068 1.984C140.068 2.788 139.678 3.19 138.898 3.19ZM141.778 10.822H143.398V13H141.562C140.686 13 139.96 12.766 139.384 12.298C138.808 12.766 138.082 13 137.206 13H135.37V10.822H136.99C137.446 10.822 137.77 10.726 137.962 10.534C138.154 10.33 138.25 9.994 138.25 9.526V6.196L140.518 5.008V9.526C140.518 9.994 140.614 10.33 140.806 10.534C140.998 10.726 141.322 10.822 141.778 10.822ZM142.314 13V10.822H145.482V13H142.314ZM144.405 13V10.822H147.573V13H144.405ZM148.207 3.424C147.847 3.424 147.559 3.316 147.343 3.1C147.127 2.884 147.019 2.59 147.019 2.218C147.019 1.87 147.127 1.588 147.343 1.372C147.559 1.156 147.847 1.048 148.207 1.048C148.567 1.048 148.849 1.156 149.053 1.372C149.269 1.576 149.377 1.858 149.377 2.218C149.377 3.022 148.987 3.424 148.207 3.424ZM150.961 3.424C150.601 3.424 150.313 3.316 150.097 3.1C149.881 2.872 149.773 2.578 149.773 2.218C149.773 1.87 149.881 1.588 150.097 1.372C150.325 1.156 150.613 1.048 150.961 1.048C151.321 1.048 151.603 1.156 151.807 1.372C152.023 1.576 152.131 1.858 152.131 2.218C152.131 3.022 151.741 3.424 150.961 3.424ZM152.905 10.822H154.525V13H152.689C151.813 13 151.087 12.766 150.511 12.298C149.935 12.766 149.209 13 148.333 13H146.497V10.822H148.117C148.573 10.822 148.897 10.726 149.089 10.534C149.281 10.33 149.377 9.994 149.377 9.526V6.196L151.645 5.008V9.526C151.645 9.994 151.741 10.33 151.933 10.534C152.125 10.726 152.449 10.822 152.905 10.822ZM153.44 13V10.822H156.608V13H153.44ZM155.532 13V10.822H158.7V13H155.532ZM157.624 13V10.822H159.532C159.988 10.822 160.312 10.726 160.504 10.534C160.708 10.33 160.81 9.994 160.81 9.526V7.15L163.078 5.962V9.526C163.078 9.994 163.174 10.33 163.366 10.534C163.558 10.726 163.882 10.822 164.338 10.822H165.562C166.018 10.822 166.342 10.726 166.534 10.534C166.726 10.33 166.822 9.994 166.822 9.526V6.682L169.09 5.476V9.526C169.09 9.994 169.186 10.33 169.378 10.534C169.582 10.726 169.912 10.822 170.368 10.822H171.592C172.048 10.822 172.372 10.726 172.564 10.534C172.756 10.33 172.852 9.994 172.852 9.526V6.196L175.12 5.008V9.238C175.12 9.814 175.234 10.222 175.462 10.462C175.702 10.702 176.098 10.822 176.65 10.822H178.306V13H176.524C175.516 13 174.706 12.712 174.094 12.136C173.554 12.7 172.828 12.988 171.916 13H170.134C169.246 13 168.52 12.736 167.956 12.208C167.44 12.724 166.756 12.988 165.904 13H164.122C163.234 13 162.508 12.736 161.944 12.208C161.38 12.736 160.654 13 159.766 13H157.624ZM177.224 13V10.822H180.392V13H177.224ZM179.315 13V10.822H182.483V13H179.315ZM187.815 10.822H189.435V13H187.599C186.723 13 185.997 12.766 185.421 12.298C184.845 12.766 184.119 13 183.243 13H181.407V10.822H183.027C183.483 10.822 183.807 10.726 183.999 10.534C184.191 10.33 184.287 9.994 184.287 9.526V6.196L186.555 5.008V9.526C186.555 9.994 186.651 10.33 186.843 10.534C187.035 10.726 187.359 10.822 187.815 10.822ZM183.153 14.638C183.513 14.638 183.795 14.74 183.999 14.944C184.215 15.16 184.323 15.448 184.323 15.808C184.323 16.612 183.933 17.014 183.153 17.014C182.793 17.014 182.505 16.906 182.289 16.69C182.073 16.474 181.965 16.18 181.965 15.808C181.965 15.028 182.361 14.638 183.153 14.638ZM185.925 14.638C186.285 14.638 186.567 14.74 186.771 14.944C186.987 15.16 187.095 15.448 187.095 15.808C187.095 16.612 186.705 17.014 185.925 17.014C185.565 17.014 185.277 16.906 185.061 16.69C184.845 16.474 184.737 16.18 184.737 15.808C184.737 15.028 185.133 14.638 185.925 14.638ZM188.351 13V10.822H191.519V13H188.351ZM190.442 13V10.822H193.61V13H190.442ZM196.062 3.19C195.702 3.19 195.414 3.082 195.198 2.866C194.982 2.65 194.874 2.356 194.874 1.984C194.874 1.636 194.982 1.354 195.198 1.138C195.414 0.921999 195.702 0.813999 196.062 0.813999C196.422 0.813999 196.704 0.921999 196.908 1.138C197.124 1.342 197.232 1.624 197.232 1.984C197.232 2.788 196.842 3.19 196.062 3.19ZM198.942 10.822H200.562V13H198.726C197.85 13 197.124 12.766 196.548 12.298C195.972 12.766 195.246 13 194.37 13H192.534V10.822H194.154C194.61 10.822 194.934 10.726 195.126 10.534C195.318 10.33 195.414 9.994 195.414 9.526V6.196L197.682 5.008V9.526C197.682 9.994 197.778 10.33 197.97 10.534C198.162 10.726 198.486 10.822 198.942 10.822ZM203.708 5.062C204.608 5.134 205.4 5.404 206.084 5.872C207.308 6.7 207.92 7.894 207.92 9.454V9.688C207.92 10.768 207.584 11.614 206.912 12.226C206.324 12.742 205.562 13 204.626 13H199.478V10.822H204.392C205.232 10.822 205.652 10.408 205.652 9.58V9.472C205.652 8.824 205.4 8.296 204.896 7.888C204.404 7.48 203.756 7.276 202.952 7.276C202.352 7.276 201.716 7.396 201.044 7.636V5.458L204.698 1.39H206.984L203.708 5.062Z" fill="#F2F2F2"/>
</svg>
